<svg width="816" height="623" viewBox="0 0 816 623" fill="none" xmlns="http://www.w3.org/2000/svg">
<g clip-path="url(#clip0_38_71)">
<mask id="path-1-inside-1_38_71" fill="white">
<path d="M54.0585 179.143C57.9061 180.026 60.8116 181.218 67.9261 184.96C75.381 188.805 85.6938 194.072 89.7129 196.042C95.1992 198.746 101.451 201.914 113.197 207.997C118.746 210.895 124.385 213.691 125.679 214.268C127.027 214.827 131.067 216.861 134.712 218.811C138.356 220.761 146.763 225.08 153.377 228.415C159.99 231.75 168.606 236.144 172.535 238.214C200.317 252.619 205.838 255.24 212.129 256.467C216.782 257.373 217.621 257.312 223.192 255.775C228.264 254.401 229.808 253.682 232.788 251.35C239.895 245.882 242.941 241.315 250.443 224.864C252.668 219.851 255.445 214.086 256.601 211.994C257.722 209.984 259.435 206.781 260.399 205.038C263.812 198.78 274.298 182.637 276.789 179.751C277.742 178.725 279.273 176.653 280.265 175.185C282.746 171.517 293.029 159.44 299.258 152.975C307.806 144.036 326.386 127.316 331.042 124.293C332.245 123.471 334.175 122.054 335.28 121.121C341.335 115.998 367.175 99.9017 378.03 94.6362C409.119 79.3936 446.021 68.6048 475.177 66.2064C476.668 66.0756 480.025 65.8342 482.653 65.6169C493.355 64.7578 509.173 64.7239 519.473 65.6386C523.263 65.9697 528.121 66.3796 530.203 66.5553C532.286 66.731 536.006 67.2274 538.548 67.6814C541.034 68.1534 544.533 68.7224 546.317 68.9243C548.046 69.1442 550.983 69.6829 552.872 70.2073C554.685 70.6853 559.499 71.8955 563.534 72.789C579.209 76.444 600.553 84.6715 618.265 93.8015C627.055 98.3524 641.242 107.208 650.452 113.978C670.193 128.372 684.252 141.339 700.621 160.05C705.642 165.834 712.144 173.704 714.978 177.49C717.757 181.295 721.469 186.079 723.158 188.24C724.826 190.336 726.285 192.358 726.433 192.81C726.559 193.197 729.62 198.051 733.267 203.571C736.914 209.091 742.632 218.503 745.94 224.491C749.305 230.46 752.458 235.784 752.925 236.274C753.468 236.81 754.598 239.511 755.484 242.221C760.642 258.172 756.233 281.824 738.18 335.221C735.722 342.524 728.321 361.157 726.505 364.607C725.687 366.232 723.763 370.289 722.279 373.631C716.29 387.017 700.356 413.512 692.346 423.346C690.649 425.472 688.849 427.846 688.284 428.745C685.948 432.295 669.716 449.817 662.884 456.124C656.251 462.293 645.565 471.074 641.152 474.089C640.205 474.756 638.51 475.953 637.397 476.674C633.628 479.407 617.471 488.907 609.643 493.111C602.528 496.867 599.689 497.939 578.795 504.775C562.688 510.117 554.014 512.67 549.723 513.431C542.325 514.637 527.813 516.6 520.92 517.285C499.955 519.217 462.075 517.828 444.687 514.377C441.354 513.753 438.493 513.261 438.382 513.297C438.05 513.406 422.308 510.487 419.044 509.698C414.175 508.506 404.45 505.975 401.859 505.18C400.399 504.658 398.267 504.142 397.212 503.916C396.101 503.708 389.34 501.421 382.175 498.838C374.955 496.273 368.305 493.949 367.394 493.605C360.195 491.104 339.912 481.244 332.239 476.542C322.958 470.866 310.272 467.161 301.212 467.412C291.986 467.717 286.13 469.133 280.525 472.253C274.428 475.747 270.923 478.536 265.724 484.022C263.549 486.377 261.546 488.317 261.269 488.408C260.992 488.499 259.369 490.101 257.608 492.034C255.848 493.967 252.678 497.218 250.53 499.277C248.382 501.337 245.28 504.423 243.644 506.172C241.987 507.857 238.347 511.548 235.571 514.313C232.76 517.161 227.553 522.435 223.913 526.125C220.308 529.733 217.207 532.819 217.04 532.873C216.874 532.928 214.982 534.832 212.807 537.186C210.611 539.476 208.415 541.765 207.89 542.223C206.212 543.843 200.176 549.96 193.345 556.837C189.671 560.61 184.913 565.381 182.709 567.459C180.505 569.536 177.84 572.265 176.728 573.557C175.596 574.785 173.96 576.534 173.055 577.33C172.149 578.126 169.911 580.287 168.185 582.137C161.832 588.786 153.324 597.283 151.236 598.966C144.503 604.454 139.423 605.616 135.288 602.542C133.193 601.014 132.718 600.312 131.557 596.764C130.818 594.506 130.259 592.047 130.359 591.229C130.404 590.428 130.523 589.104 130.623 588.286C130.668 587.485 130.671 586.556 130.544 586.169C130.418 585.782 130.687 580.98 131.078 575.425C131.546 569.916 131.995 563.413 132.13 561.013C132.265 558.612 132.92 550.113 133.536 542.057C134.172 534.064 134.635 527.414 134.571 527.221C134.529 527.092 134.836 522.778 135.187 517.664C135.594 512.532 136.17 504.916 136.442 500.685C136.714 496.454 137.185 490.016 137.481 486.42C138.68 470.959 139.364 461.237 139.259 460.915C139.195 460.721 139.645 454.219 140.289 446.438C142.226 422.166 142.564 415.7 142.441 408.385C142.257 398.447 142.175 397.26 140.788 389.644C140.07 385.951 139.216 381.089 138.852 378.851C138.488 376.614 136.295 368.975 134.029 361.861C129.454 347.505 127.905 344.084 118.385 326.988C116.322 323.307 111.928 315.318 108.556 309.137C105.184 302.957 100.574 294.681 98.2947 290.714C96.0704 286.728 93.4054 281.959 92.4396 280.132C91.4739 278.306 88.0464 272.143 84.9196 266.525C81.7163 260.86 77.6238 253.415 75.7346 249.891C73.8454 246.367 70.1935 239.707 67.5153 235.084C64.8925 230.443 61.8845 225 60.8555 222.98C58.6786 218.765 57.8396 217.326 51.7206 206.688C46.2586 197.12 42.8947 188.151 43.3832 184.207C43.9457 179.738 48.134 177.725 54.0585 179.143Z"/>
</mask>
<path d="M54.0585 179.143C57.9061 180.026 60.8116 181.218 67.9261 184.96C75.381 188.805 85.6938 194.072 89.7129 196.042C95.1992 198.746 101.451 201.914 113.197 207.997C118.746 210.895 124.385 213.691 125.679 214.268C127.027 214.827 131.067 216.861 134.712 218.811C138.356 220.761 146.763 225.08 153.377 228.415C159.99 231.75 168.606 236.144 172.535 238.214C200.317 252.619 205.838 255.24 212.129 256.467C216.782 257.373 217.621 257.312 223.192 255.775C228.264 254.401 229.808 253.682 232.788 251.35C239.895 245.882 242.941 241.315 250.443 224.864C252.668 219.851 255.445 214.086 256.601 211.994C257.722 209.984 259.435 206.781 260.399 205.038C263.812 198.78 274.298 182.637 276.789 179.751C277.742 178.725 279.273 176.653 280.265 175.185C282.746 171.517 293.029 159.44 299.258 152.975C307.806 144.036 326.386 127.316 331.042 124.293C332.245 123.471 334.175 122.054 335.28 121.121C341.335 115.998 367.175 99.9017 378.03 94.6362C409.119 79.3936 446.021 68.6048 475.177 66.2064C476.668 66.0756 480.025 65.8342 482.653 65.6169C493.355 64.7578 509.173 64.7239 519.473 65.6386C523.263 65.9697 528.121 66.3796 530.203 66.5553C532.286 66.731 536.006 67.2274 538.548 67.6814C541.034 68.1534 544.533 68.7224 546.317 68.9243C548.046 69.1442 550.983 69.6829 552.872 70.2073C554.685 70.6853 559.499 71.8955 563.534 72.789C579.209 76.444 600.553 84.6715 618.265 93.8015C627.055 98.3524 641.242 107.208 650.452 113.978C670.193 128.372 684.252 141.339 700.621 160.05C705.642 165.834 712.144 173.704 714.978 177.49C717.757 181.295 721.469 186.079 723.158 188.24C724.826 190.336 726.285 192.358 726.433 192.81C726.559 193.197 729.62 198.051 733.267 203.571C736.914 209.091 742.632 218.503 745.94 224.491C749.305 230.46 752.458 235.784 752.925 236.274C753.468 236.81 754.598 239.511 755.484 242.221C760.642 258.172 756.233 281.824 738.18 335.221C735.722 342.524 728.321 361.157 726.505 364.607C725.687 366.232 723.763 370.289 722.279 373.631C716.29 387.017 700.356 413.512 692.346 423.346C690.649 425.472 688.849 427.846 688.284 428.745C685.948 432.295 669.716 449.817 662.884 456.124C656.251 462.293 645.565 471.074 641.152 474.089C640.205 474.756 638.51 475.953 637.397 476.674C633.628 479.407 617.471 488.907 609.643 493.111C602.528 496.867 599.689 497.939 578.795 504.775C562.688 510.117 554.014 512.67 549.723 513.431C542.325 514.637 527.813 516.6 520.92 517.285C499.955 519.217 462.075 517.828 444.687 514.377C441.354 513.753 438.493 513.261 438.382 513.297C438.05 513.406 422.308 510.487 419.044 509.698C414.175 508.506 404.45 505.975 401.859 505.18C400.399 504.658 398.267 504.142 397.212 503.916C396.101 503.708 389.34 501.421 382.175 498.838C374.955 496.273 368.305 493.949 367.394 493.605C360.195 491.104 339.912 481.244 332.239 476.542C322.958 470.866 310.272 467.161 301.212 467.412C291.986 467.717 286.13 469.133 280.525 472.253C274.428 475.747 270.923 478.536 265.724 484.022C263.549 486.377 261.546 488.317 261.269 488.408C260.992 488.499 259.369 490.101 257.608 492.034C255.848 493.967 252.678 497.218 250.53 499.277C248.382 501.337 245.28 504.423 243.644 506.172C241.987 507.857 238.347 511.548 235.571 514.313C232.76 517.161 227.553 522.435 223.913 526.125C220.308 529.733 217.207 532.819 217.04 532.873C216.874 532.928 214.982 534.832 212.807 537.186C210.611 539.476 208.415 541.765 207.89 542.223C206.212 543.843 200.176 549.96 193.345 556.837C189.671 560.61 184.913 565.381 182.709 567.459C180.505 569.536 177.84 572.265 176.728 573.557C175.596 574.785 173.96 576.534 173.055 577.33C172.149 578.126 169.911 580.287 168.185 582.137C161.832 588.786 153.324 597.283 151.236 598.966C144.503 604.454 139.423 605.616 135.288 602.542C133.193 601.014 132.718 600.312 131.557 596.764C130.818 594.506 130.259 592.047 130.359 591.229C130.404 590.428 130.523 589.104 130.623 588.286C130.668 587.485 130.671 586.556 130.544 586.169C130.418 585.782 130.687 580.98 131.078 575.425C131.546 569.916 131.995 563.413 132.13 561.013C132.265 558.612 132.92 550.113 133.536 542.057C134.172 534.064 134.635 527.414 134.571 527.221C134.529 527.092 134.836 522.778 135.187 517.664C135.594 512.532 136.17 504.916 136.442 500.685C136.714 496.454 137.185 490.016 137.481 486.42C138.68 470.959 139.364 461.237 139.259 460.915C139.195 460.721 139.645 454.219 140.289 446.438C142.226 422.166 142.564 415.7 142.441 408.385C142.257 398.447 142.175 397.26 140.788 389.644C140.07 385.951 139.216 381.089 138.852 378.851C138.488 376.614 136.295 368.975 134.029 361.861C129.454 347.505 127.905 344.084 118.385 326.988C116.322 323.307 111.928 315.318 108.556 309.137C105.184 302.957 100.574 294.681 98.2947 290.714C96.0704 286.728 93.4054 281.959 92.4396 280.132C91.4739 278.306 88.0464 272.143 84.9196 266.525C81.7163 260.86 77.6238 253.415 75.7346 249.891C73.8454 246.367 70.1935 239.707 67.5153 235.084C64.8925 230.443 61.8845 225 60.8555 222.98C58.6786 218.765 57.8396 217.326 51.7206 206.688C46.2586 197.12 42.8947 188.151 43.3832 184.207C43.9457 179.738 48.134 177.725 54.0585 179.143Z" stroke="#4871B2" stroke-width="84" mask="url(#path-1-inside-1_38_71)"/>
</g>
<defs>
<clipPath id="clip0_38_71">
<rect width="816" height="623" fill="white"/>
</clipPath>
</defs>
</svg>
