<svg width="603" height="395" viewBox="0 0 603 395" fill="none" xmlns="http://www.w3.org/2000/svg">
<mask id="path-1-inside-1_26_36" fill="white">
<path d="M554.8 1.69215C551.9 3.38627 549.85 5.08038 545.05 9.88037C540 14.8498 533 21.6827 530.25 24.2803C526.5 27.838 522.25 31.9603 514.3 39.8097C510.55 43.5367 506.7 47.2073 505.8 47.9979C504.85 48.7885 502.1 51.4426 499.65 53.9273C497.2 56.412 491.5 62.0026 487 66.3508C482.5 70.699 476.65 76.4025 474 79.0567C455.2 97.6354 451.4 101.137 446.6 103.734C443.05 105.654 442.35 105.824 437.4 106.05C432.9 106.275 431.45 106.106 428.4 105.033C421.15 102.548 417.45 99.7248 406.95 88.6566C403.8 85.2684 400 81.4284 398.5 80.0731C397.05 78.7743 394.8 76.6849 393.55 75.5555C389.1 71.4896 376.25 61.4379 373.45 59.8002C372.4 59.2355 370.6 57.9932 369.4 57.0897C366.4 54.8308 354.8 47.9414 348 44.4403C338.65 39.5838 319.05 31.1697 314.45 29.9838C313.25 29.645 311.3 29.0238 310.15 28.5721C303.85 26.0874 278.5 20.045 268.25 18.6898C238.85 14.6804 205.9 15.6968 181.5 21.3439C180.25 21.6262 177.45 22.3039 175.25 22.8121C166.3 24.9015 153.4 28.9674 145.25 32.3556C142.25 33.598 138.4 35.1791 136.75 35.8568C135.1 36.5344 132.2 37.8897 130.25 38.9062C128.35 39.9226 125.65 41.2779 124.25 41.8991C122.9 42.5203 120.65 43.7062 119.25 44.6097C117.9 45.4567 114.3 47.6591 111.25 49.4097C99.45 56.3555 84.25 68.3837 72.25 80.1861C66.3 86.059 57.1 96.7319 51.4 104.468C39.15 120.958 31.15 134.849 22.8 153.88C20.25 159.753 17.05 167.659 15.75 171.386C14.5 175.113 12.75 179.856 11.95 182.002C11.15 184.092 10.5 186.068 10.5 186.463C10.5 186.802 9.3 191.433 7.8 196.741C6.3 202.049 4.15 210.972 3.05 216.562C1.9 222.153 0.75 227.179 0.5 227.687C0.2 228.252 0 230.68 0 233.052C0.05 247 9.95 264.562 38.9 302.115C42.85 307.254 53.85 320.072 56.25 322.331C57.35 323.404 60 326.115 62.1 328.374C70.55 337.409 90.6 354.237 99.75 359.941C101.7 361.183 103.8 362.595 104.5 363.159C107.35 365.362 125.25 375.018 132.5 378.237C139.55 381.399 150.6 385.578 155 386.821C155.95 387.103 157.65 387.611 158.75 387.893C162.55 389.079 178.25 392.411 185.75 393.71C192.55 394.839 195.15 394.952 214 394.952C228.55 395.009 236.3 394.783 240 394.275C246.35 393.315 258.7 391.112 264.5 389.87C282.1 385.973 312.6 375.075 325.85 367.846C328.4 366.491 330.6 365.362 330.7 365.362C331 365.362 343.05 358.981 345.5 357.512C349.15 355.31 356.4 350.792 358.3 349.494C359.35 348.703 360.95 347.743 361.75 347.291C362.6 346.839 367.5 343.282 372.65 339.385C377.85 335.489 382.65 331.931 383.3 331.423C388.5 327.583 402.4 314.538 407.4 308.835C413.45 301.945 422.8 295.734 430.25 293.588C437.85 291.442 443 291.047 448.4 292.063C454.3 293.249 457.9 294.548 463.6 297.541C466 298.84 468.15 299.856 468.4 299.856C468.65 299.856 470.4 300.703 472.35 301.776C474.3 302.849 477.75 304.6 480.05 305.673C482.35 306.745 485.7 308.383 487.5 309.343C489.3 310.247 493.25 312.223 496.25 313.691C499.3 315.216 504.95 318.04 508.9 320.016C512.8 321.936 516.15 323.574 516.3 323.574C516.45 323.574 518.5 324.59 520.9 325.889C523.3 327.131 525.7 328.374 526.25 328.6C528.05 329.447 534.6 332.722 542 336.392C546 338.425 551.15 340.967 553.5 342.039C555.85 343.112 558.75 344.581 560 345.315C561.25 345.992 563.05 346.952 564 347.348C564.95 347.743 567.35 348.872 569.25 349.889C576.2 353.503 585.4 358.021 587.55 358.811C594.5 361.409 598.95 361.014 601.5 357.512C602.8 355.762 603 355.084 603 351.978C603 350.002 602.8 347.912 602.5 347.291C602.25 346.67 601.8 345.654 601.5 345.032C601.25 344.411 601 343.677 601 343.338C601 342.999 599.5 339.272 597.7 334.981C595.85 330.745 593.75 325.72 593 323.856C592.25 321.992 589.45 315.442 586.8 309.23C584.15 303.075 582 297.936 582 297.767C582 297.654 580.6 294.322 578.95 290.369C577.25 286.416 574.75 280.543 573.4 277.268C572.05 273.993 569.95 269.023 568.75 266.256C563.65 254.341 560.5 246.83 560.5 246.548C560.5 246.379 558.4 241.353 555.8 235.367C547.75 216.675 545.75 211.649 543.9 205.833C541.4 197.927 541.15 196.967 540.25 190.586C539.85 187.48 539.25 183.414 538.95 181.551C538.65 179.687 538.4 173.08 538.35 166.868C538.25 154.332 538.6 151.226 541.8 135.245C542.5 131.8 543.95 124.346 545.05 118.586C546.15 112.826 547.7 105.09 548.5 101.362C549.25 97.6354 550.15 93.1743 550.45 91.4802C550.75 89.786 551.9 84.0261 552.95 78.7743C554.05 73.4661 555.4 66.5202 556 63.2449C556.6 59.9696 557.8 53.7579 558.75 49.4097C559.65 45.0615 560.65 39.9791 560.95 38.1156C561.6 34.2191 561.9 32.8638 564.05 22.8686C565.95 13.8898 566.3 5.92744 564.85 2.9345C563.2 -0.453723 559.25 -0.961957 554.8 1.69215Z"/>
</mask>
<path d="M554.8 1.69215C551.9 3.38627 549.85 5.08038 545.05 9.88037C540 14.8498 533 21.6827 530.25 24.2803C526.5 27.838 522.25 31.9603 514.3 39.8097C510.55 43.5367 506.7 47.2073 505.8 47.9979C504.85 48.7885 502.1 51.4426 499.65 53.9273C497.2 56.412 491.5 62.0026 487 66.3508C482.5 70.699 476.65 76.4025 474 79.0567C455.2 97.6354 451.4 101.137 446.6 103.734C443.05 105.654 442.35 105.824 437.4 106.05C432.9 106.275 431.45 106.106 428.4 105.033C421.15 102.548 417.45 99.7248 406.95 88.6566C403.8 85.2684 400 81.4284 398.5 80.0731C397.05 78.7743 394.8 76.6849 393.55 75.5555C389.1 71.4896 376.25 61.4379 373.45 59.8002C372.4 59.2355 370.6 57.9932 369.4 57.0897C366.4 54.8308 354.8 47.9414 348 44.4403C338.65 39.5838 319.05 31.1697 314.45 29.9838C313.25 29.645 311.3 29.0238 310.15 28.5721C303.85 26.0874 278.5 20.045 268.25 18.6898C238.85 14.6804 205.9 15.6968 181.5 21.3439C180.25 21.6262 177.45 22.3039 175.25 22.8121C166.3 24.9015 153.4 28.9674 145.25 32.3556C142.25 33.598 138.4 35.1791 136.75 35.8568C135.1 36.5344 132.2 37.8897 130.25 38.9062C128.35 39.9226 125.65 41.2779 124.25 41.8991C122.9 42.5203 120.65 43.7062 119.25 44.6097C117.9 45.4567 114.3 47.6591 111.25 49.4097C99.45 56.3555 84.25 68.3837 72.25 80.1861C66.3 86.059 57.1 96.7319 51.4 104.468C39.15 120.958 31.15 134.849 22.8 153.88C20.25 159.753 17.05 167.659 15.75 171.386C14.5 175.113 12.75 179.856 11.95 182.002C11.15 184.092 10.5 186.068 10.5 186.463C10.5 186.802 9.3 191.433 7.8 196.741C6.3 202.049 4.15 210.972 3.05 216.562C1.9 222.153 0.75 227.179 0.5 227.687C0.2 228.252 0 230.68 0 233.052C0.05 247 9.95 264.562 38.9 302.115C42.85 307.254 53.85 320.072 56.25 322.331C57.35 323.404 60 326.115 62.1 328.374C70.55 337.409 90.6 354.237 99.75 359.941C101.7 361.183 103.8 362.595 104.5 363.159C107.35 365.362 125.25 375.018 132.5 378.237C139.55 381.399 150.6 385.578 155 386.821C155.95 387.103 157.65 387.611 158.75 387.893C162.55 389.079 178.25 392.411 185.75 393.71C192.55 394.839 195.15 394.952 214 394.952C228.55 395.009 236.3 394.783 240 394.275C246.35 393.315 258.7 391.112 264.5 389.87C282.1 385.973 312.6 375.075 325.85 367.846C328.4 366.491 330.6 365.362 330.7 365.362C331 365.362 343.05 358.981 345.5 357.512C349.15 355.31 356.4 350.792 358.3 349.494C359.35 348.703 360.95 347.743 361.75 347.291C362.6 346.839 367.5 343.282 372.65 339.385C377.85 335.489 382.65 331.931 383.3 331.423C388.5 327.583 402.4 314.538 407.4 308.835C413.45 301.945 422.8 295.734 430.25 293.588C437.85 291.442 443 291.047 448.4 292.063C454.3 293.249 457.9 294.548 463.6 297.541C466 298.84 468.15 299.856 468.4 299.856C468.65 299.856 470.4 300.703 472.35 301.776C474.3 302.849 477.75 304.6 480.05 305.673C482.35 306.745 485.7 308.383 487.5 309.343C489.3 310.247 493.25 312.223 496.25 313.691C499.3 315.216 504.95 318.04 508.9 320.016C512.8 321.936 516.15 323.574 516.3 323.574C516.45 323.574 518.5 324.59 520.9 325.889C523.3 327.131 525.7 328.374 526.25 328.6C528.05 329.447 534.6 332.722 542 336.392C546 338.425 551.15 340.967 553.5 342.039C555.85 343.112 558.75 344.581 560 345.315C561.25 345.992 563.05 346.952 564 347.348C564.95 347.743 567.35 348.872 569.25 349.889C576.2 353.503 585.4 358.021 587.55 358.811C594.5 361.409 598.95 361.014 601.5 357.512C602.8 355.762 603 355.084 603 351.978C603 350.002 602.8 347.912 602.5 347.291C602.25 346.67 601.8 345.654 601.5 345.032C601.25 344.411 601 343.677 601 343.338C601 342.999 599.5 339.272 597.7 334.981C595.85 330.745 593.75 325.72 593 323.856C592.25 321.992 589.45 315.442 586.8 309.23C584.15 303.075 582 297.936 582 297.767C582 297.654 580.6 294.322 578.95 290.369C577.25 286.416 574.75 280.543 573.4 277.268C572.05 273.993 569.95 269.023 568.75 266.256C563.65 254.341 560.5 246.83 560.5 246.548C560.5 246.379 558.4 241.353 555.8 235.367C547.75 216.675 545.75 211.649 543.9 205.833C541.4 197.927 541.15 196.967 540.25 190.586C539.85 187.48 539.25 183.414 538.95 181.551C538.65 179.687 538.4 173.08 538.35 166.868C538.25 154.332 538.6 151.226 541.8 135.245C542.5 131.8 543.95 124.346 545.05 118.586C546.15 112.826 547.7 105.09 548.5 101.362C549.25 97.6354 550.15 93.1743 550.45 91.4802C550.75 89.786 551.9 84.0261 552.95 78.7743C554.05 73.4661 555.4 66.5202 556 63.2449C556.6 59.9696 557.8 53.7579 558.75 49.4097C559.65 45.0615 560.65 39.9791 560.95 38.1156C561.6 34.2191 561.9 32.8638 564.05 22.8686C565.95 13.8898 566.3 5.92744 564.85 2.9345C563.2 -0.453723 559.25 -0.961957 554.8 1.69215Z" stroke="#4871B2" stroke-width="84" mask="url(#path-1-inside-1_26_36)"/>
</svg>
